<svg id="Laag_1" data-name="Laag 1" xmlns="http://www.w3.org/2000/svg" viewBox="0 0 334.34 136.81"><defs><style>.cls-1{fill:#fff;}</style></defs><title>AfloatLogoWhite</title><path class="cls-1" d="M284,474.06l-8.13,49.69h-7.69l22.38-133.6h11.2l23.37,133.6h-8.09l-8.53-49.69ZM307.32,467c-6.32-36.29-10.11-60.24-11.12-70.35h-.4c-.41,9.63-6,41.16-10.53,70.35Z" transform="translate(-268.22 -388.54)"/><path class="cls-1" d="M338,390.15h40.85v7.07H345.7v52h31v7.07h-31v67.44H338Z" transform="translate(-268.22 -388.54)"/><path class="cls-1" d="M391.21,390.15h7.69V516.7h33.6l-1.41,7H391.21Z" transform="translate(-268.22 -388.54)"/><path class="cls-1" d="M488.54,420.27v72.38c0,21.29-8.45,32.71-25.58,32.71-19.64,0-24.94-14-24.94-32.71V420.46c0-19.73,7.71-31.92,25.56-31.92C482.8,388.54,488.54,403.86,488.54,420.27Zm-42.63.74v71.5c0,19,6.93,25.79,17.47,25.79,10.93,0,17.27-6.76,17.27-26.78V421.2c0-17.84-6.53-25.6-17.47-25.6C451.28,395.6,445.91,403.15,445.91,421Z" transform="translate(-268.22 -388.54)"/><path class="cls-1" d="M515.63,474.06l-8.12,49.69h-7.69l22.38-133.6h11.19l23.38,133.6h-8.1l-8.53-49.69ZM538.92,467c-6.33-36.29-10.11-60.24-11.12-70.35h-.41c-.4,9.63-6,41.16-10.53,70.35Z" transform="translate(-268.22 -388.54)"/><path class="cls-1" d="M573.47,397.22h-21.8v-7.07h50.89v7.07H581.15V523.75h-7.68Z" transform="translate(-268.22 -388.54)"/></svg>