<svg xmlns="http://www.w3.org/2000/svg" viewBox="0 0 190.1 69.6"><defs><style>.a{fill:#1d1d1b;}.b{fill:#fff;}</style></defs><title>howest_logo</title><path class="a" d="M.1,4.8C.1,2,1.8.1,4.3.1S8.5,2,8.5,4.8V16.2h.1c1.7-2.2,5-2.9,7.6-2.9,6.6,0,11.5,4.2,11.5,11.3V40.7c0,2.8-1.7,4.7-4.2,4.7s-4.2-1.9-4.2-4.7V26c0-3.9-2.4-5.8-5.5-5.8-3.4,0-5.4,2.5-5.4,5.8V40.6c0,2.8-1.7,4.7-4.2,4.7S0,43.4,0,40.6V4.8Z" transform="translate(0 -0.1)"/><path class="a" d="M62.5,29.5c0,8.7-6,16.1-15,16.1s-15-7.4-15-16.1c0-8.5,6.2-16.3,15-16.3S62.5,21,62.5,29.5Zm-21.7,0c0,4,2.1,8.4,6.6,8.4S54,33.5,54,29.5s-2-8.6-6.6-8.6S40.8,25.5,40.8,29.5Z" transform="translate(0 -0.1)"/><path class="a" d="M66,20.9a11.25,11.25,0,0,1-.9-4c0-1.9,1.7-3.4,4.2-3.4a4.06,4.06,0,0,1,4,3.3l4.8,16h.1l4.9-15.7c.6-2.3,1.8-3.7,4.3-3.7s3.6,1.4,4.3,3.7l4.9,15.7h.1l4.8-16a4,4,0,0,1,4-3.3,3.91,3.91,0,0,1,4.2,4.1,10.91,10.91,0,0,1-.8,3.1L101.7,41c-.9,2.4-2.3,4.3-5.1,4.3-2.6,0-4.1-1.5-4.8-3.9L87.5,27.9h-.1L83.1,41.4c-.8,2.4-2.3,3.9-4.8,3.9-2.7,0-4.2-1.8-5.1-4.3Z" transform="translate(0 -0.1)"/><path class="a" d="M120.4,32.2c.6,4.1,4,6.1,7.9,6.1,4.3,0,7.3-3.4,9.5-3.4a3.69,3.69,0,0,1,3.4,3.6c0,3.6-7.5,7.1-13.7,7.1-9.4,0-15.7-6.9-15.7-16.1,0-8.5,6.2-16.3,15-16.3,9.1,0,15.1,8.3,15.1,15.3,0,2.5-1.1,3.7-3.7,3.7Zm13.2-5.5c-.5-3.7-2.8-6.4-6.7-6.4-3.7,0-6.2,2.9-6.6,6.4Z" transform="translate(0 -0.1)"/><path class="a" d="M163.7,23c-1.6,0-4.8-2.4-7.5-2.4-1.5,0-2.9.7-2.9,2.3,0,3.9,14.6,3.3,14.6,12.9,0,5.6-4.7,9.8-11.9,9.8-4.7,0-11.7-2.7-11.7-6.5,0-1.3,1.3-3.7,3.6-3.7,3.3,0,4.7,2.9,8.7,2.9,2.6,0,3.3-.8,3.3-2.4,0-3.8-14.6-3.3-14.6-12.9,0-5.8,4.7-9.8,11.4-9.8,4.1,0,10.5,1.9,10.5,6.1A3.65,3.65,0,0,1,163.7,23Z" transform="translate(0 -0.1)"/><path class="a" d="M175.3,21.3h-1.9a3.42,3.42,0,0,1-3.7-3.7,3.63,3.63,0,0,1,3.7-3.7h1.9v-5c0-2.8,1.7-4.7,4.2-4.7s4.2,1.9,4.2,4.7v5h2.4c2.2,0,4,1,4,3.7s-1.9,3.7-4,3.7h-2.4V40.6c0,2.8-1.7,4.7-4.2,4.7s-4.2-1.9-4.2-4.7Z" transform="translate(0 -0.1)"/><path class="b" d="M99.7,59.7a2.21,2.21,0,1,0-4.4,0V65a.82.82,0,0,1-.8.9c-.5,0-.8-.3-.8-.9V52.5a.82.82,0,0,1,.8-.9c.5,0,.8.3.8.9v4.7h0A3.2,3.2,0,0,1,97.9,56c1.5,0,3.3,1,3.3,3.7V65a.82.82,0,0,1-.8.9c-.5,0-.8-.3-.8-.9V59.7Z" transform="translate(0 -0.1)"/><path class="b" d="M107.7,56c2.7,0,4.2,2.4,4.2,5s-1.5,5-4.2,5-4.2-2.4-4.2-5S104.9,56,107.7,56Zm0,8.5c2,0,2.6-1.9,2.6-3.6s-.7-3.6-2.6-3.6-2.6,1.9-2.6,3.6S105.7,64.5,107.7,64.5Z" transform="translate(0 -0.1)"/><path class="b" d="M121.9,65.1c0,2.9-1.7,4.6-4.3,4.6-1.6,0-3.7-1-3.7-1.8a.68.68,0,0,1,.7-.7c.7,0,1.4,1.1,3.1,1.1,2,0,2.6-1.6,2.6-3v-.8h0a2.91,2.91,0,0,1-2.4,1.4c-2.7,0-4.2-2.4-4.2-5s1.5-5,4.2-5a3.12,3.12,0,0,1,2.4,1.2h0v-.4a.73.73,0,0,1,.8-.8.71.71,0,0,1,.7.8v8.4Zm-4-.6c2,0,2.6-1.9,2.6-3.6s-.7-3.6-2.6-3.6-2.6,1.9-2.6,3.6S115.9,64.5,117.9,64.5Z" transform="translate(0 -0.1)"/><path class="b" d="M125.6,61.6a2.73,2.73,0,0,0,2.8,3c2.1,0,2.7-1.3,3.3-1.3a.67.67,0,0,1,.6.7c0,.8-2,2-3.9,2-3.1,0-4.4-2.4-4.4-5s1.6-5,4.3-5,4.1,2.4,4.1,4.7c0,.6-.2.9-.9.9Zm5.3-1.3a2.73,2.73,0,0,0-2.6-3c-2-.1-2.7,1.5-2.7,3Z" transform="translate(0 -0.1)"/><path class="b" d="M137.5,56c1.3,0,3.2.7,3.2,1.7a.68.68,0,0,1-.7.7c-.7,0-1-1-2.5-1-.9,0-1.7.4-1.7,1.2,0,1.7,5.1,1.5,5.1,4.3,0,2-1.7,3-3.5,3-2,0-3.6-1-3.6-1.8a.68.68,0,0,1,.7-.7c.7,0,1.3,1.2,3,1.2,1.2,0,1.9-.7,1.9-1.3,0-1.9-5.1-1.8-5.1-4.5C134.2,56.9,135.9,56,137.5,56Z" transform="translate(0 -0.1)"/><path class="b" d="M146.9,56c1.6,0,2.6.6,2.6,1.2a.75.75,0,0,1-.7.7c-.6,0-.9-.5-1.9-.5-2,0-2.8,1.9-2.8,3.6s.8,3.6,2.8,3.6c1.1,0,1.4-.5,1.9-.5s.6.2.6.7-.9,1.3-2.5,1.3c-2.9,0-4.3-2.4-4.3-5S144,56,146.9,56Z" transform="translate(0 -0.1)"/><path class="b" d="M157.5,59.7a2.21,2.21,0,1,0-4.4,0V65a.82.82,0,0,1-.8.9c-.5,0-.8-.3-.8-.9V52.5a.82.82,0,0,1,.8-.9c.5,0,.8.3.8.9v4.7h0a3.35,3.35,0,0,1,2.7-1.3c1.5,0,3.3,1,3.3,3.7V65a.82.82,0,0,1-.8.9c-.5,0-.8-.3-.8-.9Z" transform="translate(0 -0.1)"/><path class="b" d="M165.5,56c2.7,0,4.2,2.4,4.2,5s-1.5,5-4.2,5-4.2-2.4-4.2-5S162.8,56,165.5,56Zm0,8.5c2,0,2.6-1.9,2.6-3.6s-.7-3.6-2.6-3.6-2.6,1.9-2.6,3.6S163.6,64.5,165.5,64.5Z" transform="translate(0 -0.1)"/><path class="b" d="M175.7,56c2.7,0,4.2,2.4,4.2,5s-1.5,5-4.2,5-4.2-2.4-4.2-5S173,56,175.7,56Zm0,8.5c2,0,2.6-1.9,2.6-3.6s-.7-3.6-2.6-3.6-2.6,1.9-2.6,3.6S173.8,64.5,175.7,64.5Z" transform="translate(0 -0.1)"/><path class="b" d="M183.7,65a.82.82,0,0,1-.8.9c-.5,0-.8-.3-.8-.9V52.5a.82.82,0,0,1,.8-.9c.5,0,.8.3.8.9Z" transform="translate(0 -0.1)"/></svg>