<svg xmlns="http://www.w3.org/2000/svg" width="50" height="50" viewBox="0 0 50 50">
  <path id="ic_volume_off_24px" d="M40.5,28a12.5,12.5,0,0,0-6.944-11.194v6.139l6.806,6.806A11.755,11.755,0,0,0,40.5,28Zm6.944,0a19.007,19.007,0,0,1-1.5,7.333l4.194,4.194A24.434,24.434,0,0,0,53,28,24.991,24.991,0,0,0,33.556,3.639V9.361A19.459,19.459,0,0,1,47.444,28ZM6.528,3,3,6.528,16.139,19.667H3V36.333H14.111L28,50.222V31.528L39.806,43.333a19.232,19.232,0,0,1-6.25,3.278v5.722a24.971,24.971,0,0,0,10.25-5.028L49.472,53,53,49.472l-25-25ZM28,5.778l-5.806,5.806L28,17.389Z" transform="translate(-3 -3)" fill="#fff"/>
</svg>
