<svg xmlns="http://www.w3.org/2000/svg" viewBox="0 0 259.44 71.92"><title>logo_sport_en_bewegen</title><path d="M0,20.89c.86-3.52,3.26-5.61,6.34-7.31C13.45,9.63,20.47,5.5,27.51,1.42a9.09,9.09,0,0,1,9.75,0Q48.6,8,60,14.51a9,9,0,0,1,4.8,8.35q0,13.1,0,26.19a9,9,0,0,1-4.9,8.41q-11.31,6.49-22.6,13a9.09,9.09,0,0,1-9.76,0c-4-2.31-7.94-4.58-11.92-6.88-.34-.19-.66-.41-1-.63a7.78,7.78,0,0,0,2.82-4.48,35,35,0,0,1,2.14-5.17,45.92,45.92,0,0,1,6-9.87c1.14-1.47,1.63-1.63,3-.45a59.45,59.45,0,0,1,4.64,4.48c1.79,1.87,3.56,3.77,5.23,5.75C39.62,54.64,40.82,56,41.05,58c0,.31.62.6,1,.83a20.06,20.06,0,0,0,1.85.94,5.65,5.65,0,0,0,2.08.78,2.29,2.29,0,0,0,1.66-1c.19-.3-.21-1.2-.6-1.56a32.31,32.31,0,0,0-3-2.24c.3-.48.49-.83.71-1.15.56-.81.32-1.42-.36-2.07-1.23-1.17-2.39-2.41-3.51-3.67s-2.17-2.93-4-3.75c-.58-.27-.93-1.12-1.29-1.77C34.25,40.74,33,38,31.41,35.52,29,31.68,29.8,27.83,31,23.92c0-.07,0-.18.08-.22a48.58,48.58,0,0,1,4.54-3.17,22.44,22.44,0,0,1,4-1.39,5.74,5.74,0,0,1,1.56-.45,22.23,22.23,0,0,1,2.65.21l-.25-.81.33-.16-.76-.51.82-.48-1.34-.27-.23-.2,1-.3-.27-.42c-.57.1-1.32.45-1.66.21s-.39-1.06-.8-1.61c0,.24-.09.48-.13.72-.39,1.88-.92,2.57-2.75,2.35-2.16-.27-3.61,1-5.29,1.77a3.79,3.79,0,0,1-2.47.55,5.38,5.38,0,0,0-2,.45c-.55.16-1.08.35-1.81.59,0-.71-.1-1.27.11-1.62.88-1.38.21-2.58-.46-3.66a2.23,2.23,0,0,0-4,.36,3.63,3.63,0,0,0,.41,3.8,7.16,7.16,0,0,1,.67,1.43c-.69,0-1.19,0-1.68,0a24.23,24.23,0,0,1-2.92.28A10.44,10.44,0,0,1,15,20.84a4.35,4.35,0,0,0-3.24-.19l-.12,0c-1.5.51-2.8.38-3.71-1.1A1.63,1.63,0,0,0,7,18.81l.29,1.51-1.72-.44-.23.37.69.56-.86.31,1.3.61-.91.48L6,23.29a7.51,7.51,0,0,1,5.16.11,3.31,3.31,0,0,0,1.87.14,3.82,3.82,0,0,1,2.84.52c.87.45,1.83.72,2.74,1.11a2,2,0,0,1,.78.58C21,27.91,21.1,30.45,21.29,33c.24,3.06-.67,5.85-1.56,8.68a47.29,47.29,0,0,1-1.57,4.85c-.48,1.08-1.48,1.91-2.06,3-.76,1.38-1.32,2.88-2,4.3a7.48,7.48,0,0,1-1.24,1.88c-1,1-.76,2,.09,2.91l.54.68L11.8,61.49c-2.89-1.73-5.75-3.32-8.47-5.1C1.44,55.15.63,53.11,0,51Z"/><path d="M158.92,29.93l-3.53,11c-.31,1-.6,2-1,3a4.42,4.42,0,0,1-4,3.13,4.61,4.61,0,0,1-4.76-2.53,12.7,12.7,0,0,1-.82-1.85q-3.47-9.73-6.9-19.48a20.06,20.06,0,0,1-.71-2.52,3.39,3.39,0,0,1,2.17-4.24,4.08,4.08,0,0,1,5.09,1.45,5.94,5.94,0,0,1,.6,1.42q2.16,7.08,4.29,14.17c.14.44.3.88.54,1.6l4.45-14.18c.19-.61.36-1.23.58-1.83a3.84,3.84,0,0,1,4-2.93A3.68,3.68,0,0,1,162.86,19c1.6,4.92,3.12,9.86,4.68,14.8.11.33.23.66.43,1.24,1.12-3.69,2.17-7.14,3.21-10.6.52-1.71,1-3.43,1.54-5.14.81-2.64,2.86-3.79,5.33-3,2.22.7,3.23,2.8,2.37,5.32-1.71,5-3.5,10-5.26,15-.84,2.36-1.64,4.74-2.57,7.07A4.73,4.73,0,0,1,168.11,47c-2.45,0-4-1-4.83-3.63-1.31-4-2.56-8-3.84-11.94C159.32,31,159.17,30.65,158.92,29.93Z"/><path d="M82.5,18.45c3.61-3,7.54-3.38,11.64-2.11a9.26,9.26,0,0,1,7,8.63c.33,5,.17,10,.21,14.94a28.27,28.27,0,0,1-.14,3.57,4,4,0,0,1-8,.12,9.57,9.57,0,0,1-.14-1.78c0-4.18,0-8.37,0-12.55,0-.44,0-.88,0-1.32-.12-3.41-2.13-5.42-5.38-5.39-3.08,0-5.14,2.17-5.18,5.52,0,3.86,0,7.73,0,11.6,0,1,0,2,0,3-.07,2.64-1.7,4.35-4.1,4.35s-4.06-1.72-4.07-4.36c0-8.25,0-16.5,0-24.75,0-3.62,0-7.25,0-10.88a4,4,0,0,1,4.84-4.1,4,4,0,0,1,3.31,4.23c0,3.34,0,6.69,0,10Z"/><path d="M191.37,34.28c.13,2.89,2.53,5.21,5.75,5.75a10,10,0,0,0,6.48-1.09c1.1-.56,2.17-1.2,3.29-1.7a3.06,3.06,0,0,1,3.94,1,3.1,3.1,0,0,1,.12,4.06,8,8,0,0,1-2,1.87,18.78,18.78,0,0,1-15.12,2.62c-6.89-1.78-11.2-7.93-11-15.47.17-6.72,4-12.52,9.64-14.7,8.22-3.17,17.49,2.05,19.47,11a13.85,13.85,0,0,1,.35,3.08c0,2.48-1.09,3.56-3.59,3.57-5.35,0-10.7,0-16.05,0ZM204,28.74a6.39,6.39,0,0,0-12.78,0Z"/><path d="M105.92,32.3c.12-5.72,1.87-10.08,5.81-13.38a14,14,0,0,1,20.53,2.89c4,5.8,4.24,12,1,18.19-2.9,5.47-8.52,8-15,7.19-5.62-.75-10.38-5.27-11.79-11.28C106.16,34.52,106,33.09,105.92,32.3Zm21.54-.66-.33-.11a10,10,0,0,0-1.46-5.45,5.77,5.77,0,0,0-10,0,10.31,10.31,0,0,0-.19,10.6,5.54,5.54,0,0,0,5.26,3.12,5.34,5.34,0,0,0,5.1-3.15A38.86,38.86,0,0,0,127.46,31.64Z"/><path d="M226.06,47.4A17.5,17.5,0,0,1,217.61,45a9.27,9.27,0,0,1-2.1-1.75,3.13,3.13,0,0,1-.32-4.07,3.34,3.34,0,0,1,3.86-1.71A16.76,16.76,0,0,1,222.43,39a8.44,8.44,0,0,0,5.51,1.11,2,2,0,0,0,1.91-1.69,1.92,1.92,0,0,0-1.14-2.16c-1.24-.63-2.54-1.13-3.81-1.7-1.67-.75-3.4-1.4-5-2.3-6.48-3.65-4.86-11.6-.27-14.57,4.21-2.73,11.44-2.57,15.42.47,1.88,1.43,2.46,3.44,1.54,5.25a3.15,3.15,0,0,1-4.13,1.6c-1.45-.56-2.84-1.29-4.32-1.72a6,6,0,0,0-3-.11,2.42,2.42,0,0,0-1.48,1.6,2.18,2.18,0,0,0,.85,1.86,32.24,32.24,0,0,0,4,1.91c1.7.78,3.47,1.43,5.09,2.35,6.17,3.5,4.95,11,.51,14.16A14,14,0,0,1,226.06,47.4Z"/><path d="M245,23.64c-4.31-.37-5.41-1.13-5.42-3.6s1.15-3.29,5.42-3.78c0-.8,0-1.62,0-2.44,0-1.07,0-2.16.09-3.22A3.87,3.87,0,0,1,248.7,7,3.79,3.79,0,0,1,253,10.12a22.3,22.3,0,0,1,.21,3.57c0,.83,0,1.66,0,2.69.92,0,1.78,0,2.63,0,2.35.14,3.62,1.42,3.62,3.6a3.29,3.29,0,0,1-3.28,3.53c-.94.07-1.89,0-3,0V25c0,5.66,0,11.31,0,17a8.48,8.48,0,0,1-.22,2A3.84,3.84,0,0,1,248.83,47a3.9,3.9,0,0,1-3.76-3.38,12,12,0,0,1-.1-1.9q0-8.31,0-16.62Z"/><path d="M192,60c-.78,2.59-1.54,5.17-2.33,7.75-.46,1.5-1.56,2.32-2.83,1.85A2.88,2.88,0,0,1,185.18,68c-1.05-4-2-8-2.87-12.08a1.53,1.53,0,0,1,1.12-2,1.64,1.64,0,0,1,2.12,1.4c.6,2.76,1.13,5.54,1.69,8.3a1,1,0,0,0,.4.64q.77-2.47,1.51-4.95c.36-1.22.72-2.44,1.06-3.67.28-1,.78-1.8,1.94-1.77s1.55.8,1.83,1.76c.78,2.67,1.58,5.34,2.38,8,.08.25.19.49.4,1,.63-3.16,1.2-6,1.8-8.89.1-.49.25-1.18.6-1.37a2.86,2.86,0,0,1,2-.32c.94.27.93,1.2.75,2-.56,2.53-1.16,5-1.75,7.56-.33,1.44-.68,2.87-1,4.3a2.09,2.09,0,0,1-2.16,1.85A2.18,2.18,0,0,1,194.65,68l-2.43-8Z"/><path d="M143.67,60.31a5.68,5.68,0,0,1-.7-.94,6.32,6.32,0,0,1-.61-1.65,3.26,3.26,0,0,1,1.84-3.45,5.83,5.83,0,0,1,6.11.48,2.67,2.67,0,0,1,.95,3.3,21.21,21.21,0,0,1-2.3,3.19c.12.15.47.55.83.95s.74.82,1.15,1.27c.48-.5.9-1,1.35-1.42s1.38-.86,1.89-.21a2.31,2.31,0,0,1,.21,1.9A7.52,7.52,0,0,1,153,65.62c.48.55,1,1.11,1.46,1.69a1.39,1.39,0,0,1-.06,2.12,1.44,1.44,0,0,1-2.14,0c-.53-.48-1-1-1.33-1.35a24.91,24.91,0,0,1-4.37,1.73c-3.72.69-6.63-2-6.08-5.49C140.81,62.45,142.11,61.33,143.67,60.31Zm5,5.33c-.94-1-1.86-2.09-2.81-3.1a.75.75,0,0,0-.59-.21,3,3,0,0,0-1.63,2.72,2,2,0,0,0,2,1.86A3.48,3.48,0,0,0,148.66,65.64Zm-1.8-6.55c.75-.46,1.67-.85,1.46-1.9a1.55,1.55,0,0,0-1.13-.94,1.72,1.72,0,0,0-1.41.71C145.36,57.93,146.16,58.51,146.86,59.09Z"/><path d="M244.09,60.17c0,2.47,0,4.94,0,7.41,0,1.49-.51,2.12-1.66,2.13s-1.67-.64-1.67-2.12c0-3.9,0-7.81,0-11.71,0-.89.12-1.71,1.12-2a1.92,1.92,0,0,1,2.23,1c1.91,2.56,3.83,5.1,5.74,7.65.26.34.53.66,1,1.26V56.93c0-.52,0-1,0-1.55a1.55,1.55,0,0,1,1.71-1.61,1.53,1.53,0,0,1,1.59,1.71q0,5,0,9.92a12.24,12.24,0,0,1,0,2.5c-.14.62-.54,1.47-1,1.65a2.48,2.48,0,0,1-1.9-.53,8.76,8.76,0,0,1-1.49-1.85l-5.41-7.11Z"/><path d="M167.62,61c2.76,1.33,3.61,2.94,2.88,5.43a3.92,3.92,0,0,1-3.49,3,51.72,51.72,0,0,1-6.1.16,1.6,1.6,0,0,1-1.65-1.81c0-4,0-8,0-12.07,0-1.24.6-1.78,1.89-1.8s2.71,0,4.07,0a4,4,0,0,1,4,2.53C169.79,58.13,169.28,59.65,167.62,61Zm-5,5.66c1,0,1.93,0,2.84,0a1.69,1.69,0,0,0,1.76-1.72,1.55,1.55,0,0,0-1.52-1.77c-1-.1-2,0-3.08,0Zm0-6.53c1.2-.09,2.48.4,3.15-.82a2,2,0,0,0,0-1.76c-.75-1.09-2-.7-3.12-.68Z"/><path d="M224.82,63.33c-.69,0-1.4,0-2.1,0a1.42,1.42,0,0,1-1.52-1.61,1.39,1.39,0,0,1,1.6-1.4c1.23,0,2.47,0,3.71,0s1.83.56,1.93,1.91a7.13,7.13,0,0,1-8.18,7.58A7.38,7.38,0,0,1,213.89,64a8.57,8.57,0,0,1,2.92-9,8.7,8.7,0,0,1,9.07-.18,4.49,4.49,0,0,1,.83.68,1.58,1.58,0,0,1,.25,2.25c-.61.77-1.4.57-2.17.19a10.39,10.39,0,0,0-2.59-1.14c-3.29-.54-5.52,2-5.1,5.59.35,3,2.07,4.65,4.58,4.4A3.18,3.18,0,0,0,224.82,63.33Z"/><path d="M114.19,61.73c0,6.3-5.88,10.1-11.23,7.23-3.48-1.87-4.94-6.62-3.29-10.67a7.39,7.39,0,0,1,9-4.38A7.83,7.83,0,0,1,114.19,61.73Zm-3.26.27a20.9,20.9,0,0,0-.7-2.83,3.89,3.89,0,0,0-7.23,0,6.29,6.29,0,0,0,.18,5.64,3.83,3.83,0,0,0,6.68.23A15,15,0,0,0,110.93,62Z"/><path d="M123.12,63.12c1.23,1.33,2.35,2.51,3.45,3.72a1.59,1.59,0,0,1,0,2.49,1.72,1.72,0,0,1-2.51-.39c-.79-.9-1.53-1.83-2.29-2.75a18,18,0,0,0-2.46-2.6c0,1.36.09,2.73,0,4.08a2.76,2.76,0,0,1-.85,1.81,1.55,1.55,0,0,1-2.42-1.39c0-4.18,0-8.35,0-12.53,0-.93.44-1.61,1.39-1.63a39.11,39.11,0,0,1,5.73.12,4.14,4.14,0,0,1,3.92,4.1c.19,2.48-.78,3.88-3.27,4.73Zm-3.71-2.25c1.47-.2,3.09.54,3.94-1a2.45,2.45,0,0,0-.17-2.19c-1-1.25-2.46-.53-3.77-.71Z"/><path d="M79.67,53.46a28.22,28.22,0,0,1,3.17.94,1.48,1.48,0,0,1,.89,2.14c-.42.94-1.17,1.07-2.1.79a5.81,5.81,0,0,0-2.31-.46A2.28,2.28,0,0,0,77.77,58c-.33.79.48,1.15,1.13,1.38,1.08.4,2.2.72,3.27,1.13A4.13,4.13,0,0,1,85,64.42a4.62,4.62,0,0,1-2.24,4.47c-2.55,1.53-5.2,1.22-7.78,0a1.61,1.61,0,0,1-.84-2.23c.4-1,1.26-1,2.13-.74a13.4,13.4,0,0,0,1.49.45,8,8,0,0,0,2.12.15A1.49,1.49,0,0,0,81.39,65a2.38,2.38,0,0,0-1.1-1.47,8,8,0,0,0-2.14-.74c-3.19-1-4.37-2.35-4-4.84S76.71,53.63,79.67,53.46Z"/><path d="M90.19,64.39c0,1.27,0,2.38,0,3.49s-.54,1.8-1.57,1.83A1.54,1.54,0,0,1,86.9,68c0-4.14,0-8.29,0-12.43a1.57,1.57,0,0,1,1.77-1.68c1.44,0,2.88,0,4.31,0a5.24,5.24,0,0,1,.16,10.47C92.23,64.45,91.31,64.39,90.19,64.39Zm.07-2.86c1.55-.16,3.17.45,4.14-1.15a2.25,2.25,0,0,0-.15-2.7c-1.08-1.34-2.57-.81-4-.84Z"/><path d="M233.59,57v3.17c1.1,0,2.17,0,3.23,0,1.28,0,2,.61,2,1.58s-.73,1.47-1.93,1.49c-1,0-2.08,0-3.21,0v3.34c1.22,0,2.44,0,3.66,0s1.89.54,1.89,1.5-.66,1.54-1.87,1.56c-1.71,0-3.43,0-5.15,0-1.39,0-2-.61-2-2,0-3.87,0-7.73,0-11.6,0-1.59.58-2.12,2.2-2.13h4.67c1.25,0,1.9.52,1.92,1.48s-.69,1.57-2,1.59S234.82,57,233.59,57Z"/><path d="M175.79,57v3.18c1,0,2.1,0,3.16,0,1.29,0,2,.58,2,1.55s-.74,1.51-2,1.53h-3.14v3.34c1.25,0,2.47,0,3.7,0s1.87.53,1.85,1.52-.76,1.53-1.75,1.54c-1.76,0-3.52,0-5.27,0-1.39,0-1.92-.62-1.92-2q0-5.75,0-11.48c0-1.7.52-2.21,2.22-2.22s3.19,0,4.79,0c1.13,0,1.79.59,1.74,1.51-.05,1.09-.74,1.53-1.75,1.55C178.24,57,177.09,57,175.79,57Z"/><path d="M206.94,57v3.18c1.1,0,2.16,0,3.22,0,1.28,0,2,.62,2,1.59s-.73,1.46-1.94,1.49c-1,0-2,0-3,0a1.1,1.1,0,0,0-.19.08v3.23h3.71c1,0,1.73.32,1.8,1.44s-.56,1.59-1.78,1.62c-1.76,0-3.52,0-5.27,0-1.33,0-1.87-.62-1.88-2,0-3.9,0-7.81,0-11.71,0-1.49.57-2,2-2.05,1.68,0,3.36,0,5,0a1.47,1.47,0,0,1,1.7,1.45c.08.93-.57,1.57-1.67,1.61S208.26,57,206.94,57Z"/><path d="M134.3,57V66.9a11.34,11.34,0,0,1,0,1.43,1.64,1.64,0,0,1-3.2.16,6.27,6.27,0,0,1-.09-1.3c0-3.35,0-6.69,0-10.23-.76,0-1.47,0-2.16,0-1.15-.05-1.74-.6-1.72-1.56s.62-1.5,1.77-1.5c2.55,0,5.11,0,7.67,0a1.45,1.45,0,0,1,1.66,1.48c.06,1-.52,1.53-1.66,1.59C135.85,57,135.17,57,134.3,57Z"/></svg>