<?xml version="1.0" encoding="utf-8"?>
<!-- Svg Vector Icons : http://www.onlinewebfonts.com/icon -->
<!DOCTYPE svg PUBLIC "-//W3C//DTD SVG 1.1//EN" "http://www.w3.org/Graphics/SVG/1.1/DTD/svg11.dtd">
<svg version="1.1" xmlns="http://www.w3.org/2000/svg" xmlns:xlink="http://www.w3.org/1999/xlink" x="0px" y="0px" viewBox="0 0 1000 1000" enable-background="new 0 0 1000 1000" xml:space="preserve">
<metadata> Svg Vector Icons : http://www.onlinewebfonts.com/icon </metadata>
<g><path d="M383.5,86.5c120.3,0,217.9,99.7,217.9,222.7c0,123-97.5,222.7-217.9,222.7c-120.3,0-217.9-99.7-217.9-222.7C165.6,186.2,263.2,86.5,383.5,86.5z"/><path d="M757,913.5H10c0-177.8,119.1-326.8,280.1-369.2V436.4h186.7v107.9C637.9,586.8,757,735.7,757,913.5z"/><path d="M744.9,523.3v-30.7c64.2-31.7,108.9-98.8,108.9-177.3c0-108.8-85.4-197-190.6-197c-21.9,0-42.5,4.6-62.1,11.6c40,43,64.7,100.8,64.7,164.6c0,76.4-29.8,157-84.3,201.6v20.3h0.1v13.6c0.1,0.3,0.1,0.6,0,1v5c141,39.5,207.3,168.1,241.6,314H990C990,692.6,885.8,560.8,744.9,523.3z"/></g>
</svg>