<svg xmlns="http://www.w3.org/2000/svg" viewBox="0 0 287.24 135.75"><defs><style>.a{fill:#00b0f0;}.b{isolation:isolate;}.c{fill:#005bbf;}</style></defs><title>Sportinnovatiecampus_Logo</title><path class="a" d="M1.23,28.69A25.79,25.79,0,0,0,12,31.35a10.31,10.31,0,0,0,5.15-1.08,2.84,2.84,0,0,0,1.64-2.43c0-1.41-1.17-2.32-2.93-3.14-.88-.38-1.87-.76-3-1.14A36.81,36.81,0,0,1,6,20.75,11.06,11.06,0,0,1,.84,15.38,10.37,10.37,0,0,1,0,11.05,9.53,9.53,0,0,1,4.75,2.29,19.27,19.27,0,0,1,14.5,0a30.47,30.47,0,0,1,9.79,1.64v7.8l-.09.11a34,34,0,0,0-3.6-.79,35.09,35.09,0,0,0-5.42-.47,13.87,13.87,0,0,0-4.48.62c-1.23.44-2,1.14-2,2.29,0,1.37,1.2,2.34,3,3.16a25.54,25.54,0,0,0,3.14,1.23A56.45,56.45,0,0,1,22,18.52a11.77,11.77,0,0,1,5.37,5.07,8.89,8.89,0,0,1,.82,4A10.76,10.76,0,0,1,23,36.68a20.76,20.76,0,0,1-11.3,3.11,18.14,18.14,0,0,1-10.43-3Z" transform="translate(-0.01 0.01)"/><path class="a" d="M33.43,39.19V.59H43.6c7.26,0,12.27,1,15.52,3.08s4.63,5.21,4.63,9.46a11.34,11.34,0,0,1-6.3,10.58c-3.89,2.13-9.23,3-15.06,3.07V39.19ZM42.43,9v9.34h1.91a21.75,21.75,0,0,0,7.88-1.11c1.79-.73,2.7-1.88,2.7-3.43,0-3.4-3.81-4.8-10.58-4.8Z" transform="translate(-0.01 0.01)"/><path class="a" d="M67.75,19.87A19.38,19.38,0,0,1,86.64,0h1.11A19.29,19.29,0,0,1,102,5.72a20.13,20.13,0,0,1,5.39,14.15A19.37,19.37,0,0,1,88.6,39.79H87.4A19.46,19.46,0,0,1,73.14,34,20,20,0,0,1,67.75,19.87Zm9-.3A12.37,12.37,0,0,0,79.65,28a11.4,11.4,0,0,0,16.09.21,11.75,11.75,0,0,0,2.78-8,12.49,12.49,0,0,0-2.78-8.38,10.26,10.26,0,0,0-8-3.37,10.76,10.76,0,0,0-8.06,3.2A11.44,11.44,0,0,0,76.75,19.57Z" transform="translate(-0.01 0.01)"/><path class="a" d="M113.15,39.19V.59h11c6.33,0,11.16,1,14.44,3.08s5,5.33,5,9.87A15.26,15.26,0,0,1,141.9,21a13.1,13.1,0,0,1-4.43,4.48,13.19,13.19,0,0,0,4.07,5,22.93,22.93,0,0,0,5.31,3.14l.11.26-4.1,5.8c-2.61,0-5.59-1.52-8.2-3.72a22.87,22.87,0,0,1-6-7.79,43.6,43.6,0,0,1-6.56.49V39.19Zm9-30.08V20.19h1.06c8,0,11.54-1.82,11.54-5.89a4,4,0,0,0-2.29-3.9c-1.67-.85-4.36-1.28-8.49-1.28Z" transform="translate(-0.01 0.01)"/><path class="a" d="M148.16.59h31.72V9.06H168.49V39.19h-9V9.06H148.16Z" transform="translate(-0.01 0.01)"/><g class="b"><path class="a" d="M253.23,117.54q0,18.19-16.73,18.2-7.74,0-12-4.46t-4.28-13.74v-21h9v20.69q0,5.26,1.59,7.67c1.05,1.6,3,2.4,5.74,2.4q7.75,0,7.76-10V96.54h9Z" transform="translate(-0.01 0.01)"/><path class="a" d="M270.13,127.3q4,0,5.69-1c1.13-.68,1.7-1.43,1.72-2.25a2.52,2.52,0,0,0-.73-2,7.45,7.45,0,0,0-2.13-1.34c-.91-.41-2.33-.93-4.23-1.56a36.37,36.37,0,0,1-5.76-2.46,11.32,11.32,0,0,1-5.34-5.36,10,10,0,0,1-.85-4.33,9.43,9.43,0,0,1,4.91-8.76A18.68,18.68,0,0,1,272.88,96a28.75,28.75,0,0,1,9.94,1.64v7.79l-.08.12a28.93,28.93,0,0,0-8.76-1.26q-6.51,0-6.51,2.9,0,1.81,3,3.17a41.8,41.8,0,0,0,4.48,1.75,42.57,42.57,0,0,1,5.67,2.41q5.88,3.14,5.89,8.87a10.54,10.54,0,0,1-4.73,9.06,20.85,20.85,0,0,1-22,.38v-8.15Q266.13,127.3,270.13,127.3Z" transform="translate(-0.01 0.01)"/></g><g class="b"><path class="a" d="M80.27,127.3A47,47,0,0,0,89.94,126l.47.35v8.24a49.76,49.76,0,0,1-10.31,1.2q-9.31,0-15.4-5.78a19.19,19.19,0,0,1-6.22-14.73,17.4,17.4,0,0,1,1.63-7.44A19.69,19.69,0,0,1,71.63,97.45,24.42,24.42,0,0,1,80.45,96a50.12,50.12,0,0,1,10,1v8.24l-.44.38a45.17,45.17,0,0,0-9.55-1.2q-5.94,0-9.46,3.41a11,11,0,0,0,0,16.12A12.72,12.72,0,0,0,80.27,127.3Z" transform="translate(-0.01 0.01)"/></g><rect class="a" x="188.56" y="17.49" width="98.68" height="8.14"/><rect class="a" x="1.04" y="113.43" width="48.7" height="8.14"/><path class="c" d="M1.17,48.59h9v38.6h-9Z" transform="translate(-0.01 0.01)"/><path class="c" d="M26.4,64.19v23H17.46V48.59H26.4l14.41,23v-23h8.94v38.6H40.81Z" transform="translate(-0.01 0.01)"/><path class="c" d="M66.3,64.19v23H57.37V48.59H66.3l14.41,23v-23h8.94v38.6h-8.9Z" transform="translate(-0.01 0.01)"/><path class="c" d="M95.66,67.87A19.38,19.38,0,0,1,114.55,48h1.11a19.37,19.37,0,0,1,14.26,5.72,20,20,0,0,1-14.59,34.07A19.46,19.46,0,0,1,101.07,82,20.11,20.11,0,0,1,95.66,67.87Zm9-.3a12.37,12.37,0,0,0,2.9,8.38,11.4,11.4,0,0,0,16.09.21,11.75,11.75,0,0,0,2.78-8,12.49,12.49,0,0,0-2.78-8.38,10.26,10.26,0,0,0-8-3.37,10.76,10.76,0,0,0-8.06,3.2,11.51,11.51,0,0,0-3,8Z" transform="translate(-0.01 0.01)"/><path class="c" d="M137.26,48.59h9.43L156,75.46l9.26-26.87h9.43l-13.3,38.6H150.53Z" transform="translate(-0.01 0.01)"/><path class="c" d="M199.63,80.32H183.84l-2.37,6.87H172l13.27-38.6h13.07l13.3,38.6H202Zm-12.88-8.41h10l-5-14.53Z" transform="translate(-0.01 0.01)"/><path class="c" d="M208.75,48.59h31.73v8.47h-11.4V87.19h-9V57.06H208.75Z" transform="translate(-0.01 0.01)"/><path class="c" d="M244.54,48.59h9v38.6h-9Z" transform="translate(-0.01 0.01)"/><path class="c" d="M260.54,48.59H287V57H269.47v6.85H287v8H269.47v6.86H287v8.45H260.54Z" transform="translate(-0.01 0.01)"/><path class="a" d="M122.75,128.27H106.93l-2.38,6.92H95.09l13.27-38.61h13.07l13.32,38.61h-9.64Zm-12.89-8.4h10l-5-14.54Z" transform="translate(-0.01 0.01)"/><path class="a" d="M166.82,114.19l-4.39,9h-8.94L149,114.1l-.26,21.09h-9l.5-38.61h9l8.73,17.61,8.64-17.63h9l.62,38.61h-9Z" transform="translate(-0.01 0.01)"/><path class="a" d="M183.75,135.19V96.55h10.17c7.26,0,12.27,1,15.52,3.07s4.66,5.22,4.66,9.46a11.37,11.37,0,0,1-6.35,10.58c-3.89,2.14-9.23,3-15.06,3.08v12.45Zm9-30.18v9.35h1.91a21.75,21.75,0,0,0,7.88-1.11c1.79-.74,2.7-1.88,2.7-3.43,0-3.4-3.81-4.81-10.58-4.81Z" transform="translate(-0.01 0.01)"/></svg>